<svg xmlns="http://www.w3.org/2000/svg" width="645.1" height="444" version="1.2" viewBox="0 0 645 444"><path d="M641 273a314 314 0 0 0-29 7 176 176 0 0 0-38 20c-5 4-12 9-15 13a149 149 0 0 0-18 33l-4 18a140 140 0 0 0 3 48l8 19 11 17a116 116 0 0 0 31 23c8 5 9 6 8 7a379 379 0 0 0-34 16 108 108 0 0 0-31 29l-12 18a109 109 0 0 0-10 32l-1 27c1 12 1 19 3 25a122 122 0 0 0 15 32 210 210 0 0 0 34 33 190 190 0 0 0 39 19 197 197 0 0 0 60 7 174 174 0 0 0 108-32 120 120 0 0 0 23-24 119 119 0 0 0 19-78c-1-7-2-17-4-22a111 111 0 0 0-32-53 129 129 0 0 0-31-21 128 128 0 0 0-22-8l7-6a280 280 0 0 0 29-23 109 109 0 0 0 23-41l3-20a137 137 0 0 0-4-37 103 103 0 0 0-14-30l-12-14a108 108 0 0 0-32-22 152 152 0 0 0-31-10l-28-2h-22zm-19 40c2 0 4 1 9 5l1 82 2 3 7 2c3 0 4-1 9-5l1-81 2-2 5-4 6 2 4 2 2 83 2 3 6 2 5-1 3-3c1-2 2-13 3-82l3-3 6-3c2 0 4 1 9 6v45l-1 51-5 14-7 10a358 358 0 0 1-19 18c-2 3-3 6-3 21l1 21 5 5 9 6a153 153 0 0 1 29 21 140 140 0 0 1 16 23l5 13 3 20c0 12 0 15-2 23l-5 15a97 97 0 0 1-13 19l-10 9a78 78 0 0 1-27 13l-22 1c-13 0-17 0-24-2a105 105 0 0 1-29-14 72 72 0 0 1-19-24l-6-15a88 88 0 0 1-2-35 115 115 0 0 1 13-32c4-7 8-12 14-17 4-4 12-11 19-15l14-9 5-5 1-18c0-11 0-16-2-19-1-4-3-7-7-10l-11-11-9-11c-2-4-4-10-4-15-2-7-2-16-2-51 0-36 0-42 2-45 0-2 2-4 3-5l5-1z" style="fill:#000;fill-opacity:1" transform="translate(-167 -272)"/><path d="m181 287 7-13 17-33 21-42 22-43 17-33 7-14q5-12 17-19 11-7 25-7 20 0 34 13 13 14 13 34 0 13-5 24l-7 15-16 32-22 43-25 47-66 128q-6 11-16 17-10 7-23 7-12 0-22-6t-15-17L75 286l-26-49-21-43-15-31-6-12q-6-11-6-21 0-20 14-34 14-13 34-13 14 0 24 7 12 7 18 19l6 14q8 12 17 32l22 44 21 42 17 33zm148-111q2-4 0-8-1-5-5-6-3-2-8 0-4 1-6 5l-46 91q-4 10 5 14 4 2 8 1 4-2 7-6zm13-33q3-4 1-8t-6-5q-3-3-8-1-4 2-6 6t0 8q2 4 6 5 3 2 7 1 5-2 6-6z" aria-label="v" style="font-size:800px;font-family:&quot;balonez fantasia br&quot;;-inkscape-font-specification:&quot;balonez fantasia br&quot;;stroke:#000;stroke-width:2.769"/></svg>